<svg height="30px" viewBox="0 0 48 60" width="30px" xmlns="http://www.w3.org/2000/svg">
<g id="Page-1" fill="#999999" fill-rule="evenodd">
<g id="021---Paper-Waste" fill="#999999" fill-rule="nonzero">
<path fill="#999999" id="Shape" d="m2 14h.091l3.909 41.049v2.951c0 1.1045695.8954305 2 2 2h32c1.1045695 0 2-.8954305 2-2v-2.951l3.909-41.049h.091c1.1045695 0 2-.8954305 2-2v-2c0-1.1045695-.8954305-2-2-2h-1v-1c0-1.65685425-1.3431458-3-3-3h-8v-1c0-1.65685425-1.3431458-3-3-3h-14c-1.6568542 0-3 1.34314575-3 3v1h-8c-1.65685425 0-3 1.34314575-3 3v1h-1c-1.1045695 0-2 .8954305-2 2v2c0 1.1045695.8954305 2 2 2zm6 44v-2h32v2zm32.091-4h-32.182l-3.809-40h39.8zm-24.091-51c0-.55228475.4477153-1 1-1h14c.5522847 0 1 .44771525 1 1v1h-16zm-11 4c0-.55228475.44771525-1 1-1h36c.5522847 0 1 .44771525 1 1v1h-38zm-3 3h44v2h-44z"/><path fill="#999999" id="Shape" d="m12 47h2v2c0 1.1045695.8954305 2 2 2h14c.2649991-.0010349.5189537-.1062805.707-.293l7-7c.1867195-.1880463.2919651-.4420009.293-.707v-20c0-1.1045695-.8954305-2-2-2h-2v-2c0-1.1045695-.8954305-2-2-2h-20c-1.1045695 0-2 .8954305-2 2v26c0 1.1045695.8954305 2 2 2zm19 .586v-3.586h3.586zm5-5.586h-5c-1.1045695 0-2 .8954305-2 2v5h-13v-26h20zm-24-23h20v2h-16c-1.1045695 0-2 .8954305-2 2v22h-2z"/><path fill="#999999" id="Shape" d="m32 27h-12c-.5522847 0-1 .4477153-1 1s.4477153 1 1 1h12c.5522847 0 1-.4477153 1-1s-.4477153-1-1-1z"/><path fill="#999999" id="Shape" d="m32 31h-12c-.5522847 0-1 .4477153-1 1s.4477153 1 1 1h12c.5522847 0 1-.4477153 1-1s-.4477153-1-1-1z"/><path fill="#999999" id="Shape" d="m32 35h-12c-.5522847 0-1 .4477153-1 1s.4477153 1 1 1h12c.5522847 0 1-.4477153 1-1s-.4477153-1-1-1z"/><path fill="#999999" id="Shape" d="m28 39h-8c-.5522847 0-1 .4477153-1 1s.4477153 1 1 1h8c.5522847 0 1-.4477153 1-1s-.4477153-1-1-1z"/><path fill="#999999" id="Shape" d="m26 43h-6c-.5522847 0-1 .4477153-1 1s.4477153 1 1 1h6c.5522847 0 1-.4477153 1-1s-.4477153-1-1-1z"/></g></g></svg>